<svg width="649" height="594" viewBox="0 0 649 594" fill="none" xmlns="http://www.w3.org/2000/svg">
<g clip-path="url(#clip0_18_51)">
<path d="M415.799 474.37L422.036 488.349C416.966 487.542 412.252 491.87 412.146 497.429C412.04 502.987 416.562 508.769 421.632 509.56C420.663 513.875 416.482 515.777 412.852 517.522C409.223 519.266 405.311 522.158 405.581 526.757C405.798 530.449 408.852 533.708 412.096 535.019C415.339 536.329 418.742 536.128 422.026 535.908C417.049 541.113 416.564 550.897 420.935 557.916C425.306 564.935 434.036 568.39 440.573 565.688C435.954 571.432 436.957 581.949 442.689 587.877C448.467 593.852 456.841 594.43 464.162 593.801C482.804 592.225 500.567 585.188 515.228 573.569C520.825 569.124 526.052 563.896 529.245 557.076C532.437 550.256 533.378 541.621 530.404 533.861C531.206 543.583 540.94 551.261 549.697 551.691C558.454 552.12 566.099 547.19 572.596 541.567C581.236 534.09 589.236 523.609 588.05 510.676C587.463 504.274 584.666 498.117 581.922 492.152L576.603 480.59C574.456 475.922 572.26 471.175 569.028 467.258C565.797 463.341 561.311 460.308 556.822 460.337C557.848 455.649 558.879 450.787 558.019 445.806C557.159 440.826 553.865 435.669 549.386 434.502C543.685 433.018 538.854 438.277 533.121 437.781C527.604 437.304 523.045 431.769 517.688 429.576C515.483 428.623 513.047 428.333 510.679 428.742C508.311 429.152 506.114 430.243 504.357 431.882C500.961 435.196 499.545 440.795 500.764 446.093C501.831 450.734 504.672 454.828 506.397 459.304C508.121 463.78 508.389 469.535 505.077 471.98C501.081 474.93 494.998 470.916 491.876 466.059C488.754 461.203 486.961 455.323 483.013 451.239C478.353 446.419 471.059 445.289 466.262 448.645C461.464 452 459.629 459.515 462.048 465.902C464.025 471.125 468.556 476.409 466.984 481.327C465.324 486.525 458.058 485.866 453.675 482.193C449.292 478.519 446.381 472.986 442.052 469.23C437.655 465.416 431.913 463.744 426.872 464.812C424.315 465.405 421.948 466.632 419.991 468.38C418.033 470.129 416.548 472.342 415.672 474.816" fill="#E6E6E6"/>
<path d="M516.77 435.086L503.83 441.096C501.885 442.056 499.679 442.353 497.549 441.942C495.67 441.498 494.401 440.35 494.067 438.791L491.056 424.733C490.488 422.081 492.685 418.943 496.28 417.273L503.426 413.954C507.022 412.284 510.838 412.629 512.498 414.774L521.304 426.14C522.281 427.401 522.34 429.111 521.468 430.833C520.409 432.725 518.759 434.219 516.77 435.086V435.086Z" fill="#3F3D56"/>
<path d="M115.529 175.252C127.694 141.967 146.678 111.589 171.266 86.062C192.127 64.4132 224.593 65.3128 224.593 65.3128L224.779 65.0827C232.593 55.45 243.078 48.3386 254.92 44.6406C266.761 40.9426 279.431 40.8228 291.341 44.2961C294.436 45.1841 296.817 45.5777 297.95 45.1822C318.595 37.9589 317.625 21.6552 335.438 8.52104C366.626 -14.4761 470.076 11.8667 484.663 54.1841C496.486 88.4815 549.26 105.105 568.977 131.34C572.06 135.442 575.085 139.592 578.051 143.789C579.442 145.739 580.818 147.703 582.177 149.683C596.147 169.906 608.678 191.084 619.681 213.062C626.895 227.421 633.166 242.235 638.452 257.41C659.014 317.501 651.982 362.272 595.286 351.211C588.574 349.898 582.024 348.724 575.635 347.687C566.384 346.178 557.455 344.938 548.848 343.966C537.259 342.649 526.233 341.786 515.771 341.377C512.253 341.235 508.8 341.14 505.411 341.092C455.305 340.398 418.139 349.825 389.825 364.459C385.026 366.934 380.477 369.551 376.18 372.312C369.617 376.507 363.35 381.147 357.424 386.202C349.223 393.237 341.661 400.983 334.825 409.35L334.45 409.81C301.333 450.305 290.434 495.136 267.398 503.029C168.923 536.777 106.642 414.44 100.255 294.768C99.9326 288.738 99.7545 282.725 99.7207 276.729C99.7007 274.049 99.7139 271.376 99.7602 268.71C99.8613 261.755 100.168 254.846 100.682 248.019C100.873 245.409 101.096 242.813 101.349 240.231C101.628 237.446 101.932 234.678 102.282 231.927C104.787 211.763 109.17 192.579 115.529 175.252Z" fill="#8985C6"/>
<path d="M420.75 241.095C412.886 244.755 412.756 261.15 415.222 266.462L419.691 276.077L448.177 262.847L443.708 253.231C441.238 247.921 428.62 237.447 420.75 241.095Z" fill="#3F3D56"/>
<path d="M344.2 379.144C343.699 379.144 343.205 379.023 342.761 378.792C342.316 378.56 341.934 378.225 341.647 377.814C341.359 377.404 341.176 376.93 341.111 376.433C341.046 375.936 341.101 375.431 341.273 374.96C341.413 374.576 341.627 374.223 341.904 373.922C342.181 373.62 342.515 373.377 342.887 373.206L489.997 304.878C490.368 304.706 490.769 304.608 491.178 304.591C491.586 304.574 491.994 304.637 492.379 304.777C492.763 304.918 493.115 305.132 493.417 305.409C493.718 305.685 493.962 306.019 494.134 306.389C494.481 307.138 494.517 307.994 494.233 308.77C493.95 309.545 493.37 310.176 492.622 310.525H492.621L345.511 378.852C345.101 379.044 344.653 379.144 344.2 379.144V379.144Z" fill="#3F3D56"/>
<path d="M459.274 268.979L417.223 288.51L483.187 430.44L525.238 410.909L459.274 268.979Z" fill="#E6E6E6"/>
<path d="M301.418 90.3125C293.553 93.9728 293.424 110.368 295.89 115.68L300.359 125.295L328.845 112.064L324.376 102.449C321.905 97.139 309.288 86.6646 301.418 90.3125Z" fill="#3F3D56"/>
<path d="M477.627 451.402L464.687 457.412C462.742 458.372 460.536 458.67 458.406 458.259C456.527 457.814 455.258 456.666 454.924 455.107L451.913 441.049C451.345 438.397 453.542 435.259 457.137 433.589L464.283 430.27C467.879 428.6 471.695 428.945 473.355 431.09L482.161 442.457C483.138 443.717 483.197 445.427 482.325 447.149C481.266 449.041 479.616 450.535 477.627 451.402V451.402Z" fill="#3F3D56"/>
<path d="M437.843 471.134L424.903 477.144C422.958 478.104 420.752 478.402 418.622 477.991C416.743 477.546 415.474 476.398 415.14 474.839L412.129 460.781C411.561 458.129 413.758 454.991 417.353 453.321L424.499 450.002C428.095 448.332 431.911 448.677 433.571 450.822L442.377 462.189C443.354 463.449 443.413 465.159 442.541 466.881C441.482 468.773 439.832 470.267 437.843 471.134V471.134Z" fill="#3F3D56"/>
<path d="M351.162 142.339L309.111 161.87L442.449 448.765L484.5 429.234L351.162 142.339Z" fill="#E6E6E6"/>
<path d="M394.794 290.233L390.075 279.854L392.792 278.601L397.496 288.948L465.613 439.931L462.899 441.191" fill="#3F3D56"/>
<path d="M448.013 281.606L443.294 271.226L446.011 269.974L450.715 280.32L518.832 431.304L516.118 432.564" fill="#3F3D56"/>
<path d="M371.01 165.299L314.033 191.763C310.405 186.121 299.47 157.21 301.925 148.632L300.082 140.452L339.424 122.179L344.69 128.655C352.506 131.053 367.724 158.208 371.01 165.299Z" fill="#E6E6E6"/>
<path d="M341.068 122.529L300.469 141.386C298.971 142.082 297.375 141.826 296.905 140.814C296.837 140.668 296.795 140.512 296.781 140.352L294.68 117.944C294.59 116.984 295.411 115.897 296.666 115.314L323.589 102.809C324.844 102.226 326.205 102.3 326.88 102.988L342.656 119.045C343.463 119.866 343.025 121.272 341.677 122.185C341.484 122.316 341.28 122.431 341.068 122.529V122.529Z" fill="#E6E6E6"/>
<path d="M372.91 298.089C372.471 298.09 372.033 298.038 371.605 297.935C371.003 297.81 370.438 297.549 369.952 297.172C369.466 296.795 369.073 296.312 368.803 295.76L343.982 242.354C342.955 240.143 344.334 237.316 347.057 236.051L383.401 219.171C386.124 217.905 389.174 218.676 390.202 220.887L415.023 274.293C415.271 274.855 415.387 275.467 415.362 276.081C415.337 276.695 415.171 277.296 414.878 277.836C414.241 279.06 413.208 280.032 411.948 280.595L375.604 297.476C374.761 297.873 373.842 298.082 372.91 298.089Z" fill="#3F3D56"/>
<path d="M377.88 306.172L335.829 325.704L401.793 467.634L443.844 448.102L377.88 306.172Z" fill="#E6E6E6"/>
<path d="M326.074 124.87L313.742 130.598C311.363 131.703 308.152 129.861 306.587 126.493C305.021 123.124 305.684 119.484 308.063 118.379L320.395 112.651C322.775 111.546 325.985 113.387 327.551 116.756C329.116 120.124 328.454 123.765 326.074 124.87Z" fill="#3F3D56"/>
<path d="M340.178 277.907C332.313 281.568 332.184 297.962 334.65 303.275L339.118 312.89L367.605 299.659L363.136 290.044C360.665 284.734 348.048 274.259 340.178 277.907Z" fill="#3F3D56"/>
<path d="M209.541 245.182C206.763 247.032 203.92 242.629 206.751 240.861C209.529 239.011 212.371 243.414 209.541 245.182Z" fill="#E6E6E6"/>
<path d="M498.65 181.914C495.873 183.764 493.03 179.361 495.861 177.593C498.638 175.743 501.481 180.146 498.65 181.914Z" fill="#E6E6E6"/>
<path d="M301.595 232.241C298.818 234.091 295.975 229.687 298.806 227.92C301.583 226.07 304.426 230.473 301.595 232.241Z" fill="#E6E6E6"/>
<path d="M209.541 404.788C206.763 406.638 203.92 402.235 206.751 400.467C209.529 398.617 212.371 403.021 209.541 404.788Z" fill="#E6E6E6"/>
<path d="M351.219 44.5951C348.441 46.4451 345.599 42.042 348.429 40.2741C351.207 38.4242 354.049 42.8274 351.219 44.5951Z" fill="#E6E6E6"/>
<path d="M214.575 129.431C211.797 131.281 208.955 126.878 211.785 125.11C214.563 123.26 217.406 127.663 214.575 129.431Z" fill="#E6E6E6"/>
<path d="M411.11 105.11L409.343 104.723L409.73 102.956L408.552 102.697L408.165 104.465L406.398 104.078L406.14 105.255L407.907 105.643L407.52 107.409L408.698 107.668L409.085 105.9L410.852 106.288L411.11 105.11Z" fill="#E6E6E6"/>
<path d="M123.369 252.335L121.602 251.948L121.989 250.181L120.811 249.923L120.424 251.689L118.656 251.303L118.398 252.48L120.165 252.868L119.778 254.635L120.956 254.892L121.344 253.126L123.111 253.513L123.369 252.335Z" fill="#E6E6E6"/>
<path d="M485.754 327.435C484.284 328.116 482.603 328.186 481.081 327.63C479.559 327.074 478.319 325.937 477.635 324.468L470.362 308.82C469.681 307.35 469.612 305.671 470.169 304.15C470.726 302.629 471.864 301.392 473.333 300.71C474.802 300.027 476.482 299.956 478.004 300.511C479.526 301.066 480.765 302.202 481.45 303.67L488.722 319.318C489.404 320.788 489.474 322.468 488.917 323.99C488.361 325.512 487.223 326.751 485.754 327.435V327.435Z" fill="#3F3D56"/>
<path d="M362.055 384.951C360.585 385.632 358.904 385.702 357.382 385.146C355.86 384.59 354.62 383.452 353.936 381.984L346.663 366.336C345.982 364.866 345.913 363.187 346.47 361.666C347.027 360.145 348.165 358.908 349.635 358.225C351.104 357.543 352.784 357.472 354.305 358.027C355.827 358.582 357.067 359.718 357.751 361.186L365.024 376.834C365.705 378.304 365.775 379.984 365.218 381.506C364.662 383.028 363.524 384.267 362.055 384.951Z" fill="#3F3D56"/>
<path d="M474.551 293.246L425.786 315.895C422.682 311.067 413.322 286.323 415.424 278.981L416.455 270.769L445.572 256.488L452.024 261.884C461.115 258.812 474.477 281.33 474.551 293.246Z" fill="#E6E6E6"/>
<path d="M451.911 291.675L439.579 297.403C437.2 298.508 433.579 295.783 431.509 291.33C429.439 286.876 429.691 282.353 432.071 281.247L444.402 275.52C446.782 274.414 450.403 277.139 452.473 281.593C454.543 286.046 454.291 290.57 451.911 291.675Z" fill="#3F3D56"/>
<path d="M347.328 321.148L342.609 310.768L345.326 309.516L350.03 319.862L418.147 470.846L415.433 472.106" fill="#3F3D56"/>
<path d="M393.978 330.058L345.213 352.708C338.019 348.994 327.025 324.697 334.851 315.794L335.883 307.581L364.999 293.301L371.451 298.697C378.142 300.749 391.165 323.99 393.978 330.058Z" fill="#E6E6E6"/>
<path d="M370.335 326.328L358.003 332.056C355.623 333.161 352.228 330.921 350.434 327.063C348.641 323.204 349.118 319.165 351.498 318.06L363.83 312.332C366.209 311.227 369.605 313.467 371.398 317.326C373.191 321.184 372.714 325.223 370.335 326.328Z" fill="#3F3D56"/>
<path d="M123.189 221.325C164.1 221.325 197.265 188.17 197.265 147.273C197.265 106.375 164.1 73.2212 123.189 73.2212C82.2785 73.2212 49.1138 106.375 49.1138 147.273C49.1138 188.17 82.2785 221.325 123.189 221.325Z" fill="#FF6584"/>
<path opacity="0.3" d="M426.908 224.401L471.924 92.9708L422.494 222.828C422.249 223.136 422.082 223.498 422.006 223.884C421.929 224.27 421.946 224.668 422.054 225.046C422.162 225.425 422.359 225.771 422.629 226.058C422.898 226.345 423.232 226.564 423.602 226.696C423.973 226.828 424.37 226.87 424.76 226.818C425.15 226.766 425.522 226.622 425.845 226.398C426.168 226.173 426.433 225.875 426.618 225.528C426.803 225.181 426.903 224.794 426.908 224.401H426.908Z" fill="#F0F0F0"/>
<path d="M541.656 146.06C532.844 148.988 523.075 151.864 512.348 154.688C456.867 169.291 382.501 180.681 302.948 186.762C223.396 192.843 148.162 192.887 91.1047 186.888C63.3105 183.964 41.3268 179.76 25.7647 174.391C9.28873 168.708 0.6314 161.859 0.0328424 154.035C-1.13276 138.794 28.9529 125.379 54.3969 116.81L55.086 118.854C20.1446 130.622 1.35721 143.058 2.18441 153.871C3.2375 167.643 35.73 178.895 91.3304 184.742C148.262 190.729 223.358 190.683 302.784 184.612C382.21 178.54 456.44 167.172 511.799 152.602C565.862 138.374 596.267 122.313 595.214 108.541C594.339 97.1064 571.792 87.3246 531.726 80.9964L532.063 78.8661C561.175 83.4643 596.137 92.3164 597.365 108.377C597.963 116.2 590.448 124.285 575.028 132.407C566.238 137.036 555.07 141.604 541.656 146.06Z" fill="#3F3D56"/>
<path d="M563.423 277.398C567.674 277.398 571.12 273.953 571.12 269.704C571.12 265.454 567.674 262.009 563.423 262.009C559.172 262.009 555.726 265.454 555.726 269.704C555.726 273.953 559.172 277.398 563.423 277.398Z" fill="#FF6584"/>
<path d="M612.327 485.893C616.578 485.893 620.024 482.448 620.024 478.199C620.024 473.949 616.578 470.504 612.327 470.504C608.076 470.504 604.63 473.949 604.63 478.199C604.63 482.448 608.076 485.893 612.327 485.893Z" fill="#F2F2F2"/>
<path d="M349.827 532.742C358.115 532.742 364.833 526.026 364.833 517.741C364.833 509.456 358.115 502.739 349.827 502.739C341.539 502.739 334.82 509.456 334.82 517.741C334.82 526.026 341.539 532.742 349.827 532.742Z" fill="#F2F2F2"/>
<path d="M235.477 334.195C239.728 334.195 243.174 330.75 243.174 326.5C243.174 322.251 239.728 318.806 235.477 318.806C231.226 318.806 227.78 322.251 227.78 326.5C227.78 330.75 231.226 334.195 235.477 334.195Z" fill="#3F3D56"/>
<path d="M494.238 344.209L527.447 352.803L547.815 392.797L513.381 394.147L494.238 344.209Z" fill="#E6E6E6"/>
<path d="M417.587 286.554L435.865 304.836L482.285 405.168L473.739 412.55L417.587 286.554Z" fill="#CCCCCC"/>
<path d="M377.846 303.126L379.28 328.933L423.096 430.43L434.298 428.988L377.846 303.126Z" fill="#CCCCCC"/>
<path d="M376.65 407.383L358.765 436.645L371.95 479.544L397.634 456.576L376.65 407.383Z" fill="#E6E6E6"/>
<path d="M534.641 425.364C525.355 425.364 515.177 425.013 504.107 424.311C446.85 420.677 372.686 408.039 295.275 388.729C217.864 369.418 146.455 345.74 94.2028 322.058C68.7493 310.521 49.2138 299.6 36.1397 289.599C22.2976 279.011 16.2429 269.782 18.1431 262.169C21.8454 247.338 54.6277 244.093 81.4768 243.983L81.4859 246.14C44.615 246.291 22.863 252.169 20.2367 262.691C16.8912 276.093 44.1757 297.015 95.0938 320.093C147.231 343.724 218.509 367.356 295.797 386.637C373.085 405.916 447.113 418.532 504.244 422.159C560.037 425.701 593.956 420.047 597.302 406.645C600.079 395.518 581.769 379.127 545.744 360.49L546.736 358.575C572.912 372.117 603.296 391.539 599.395 407.167C597.495 414.78 587.813 420.083 570.617 422.929C560.815 424.551 548.776 425.364 534.641 425.364Z" fill="#3F3D56"/>
</g>
<defs>
<clipPath id="clip0_18_51">
<rect width="649" height="594" fill="white"/>
</clipPath>
</defs>
</svg>
