<svg width="1124" height="828" viewBox="0 0 1124 828" fill="none" xmlns="http://www.w3.org/2000/svg">
<g opacity="0.3" clip-path="url(#clip0_18_150)">
<path d="M1002.48 443.171C997.584 499.724 972.922 554.373 937.742 599.571C936.272 601.461 934.783 603.334 933.278 605.189C929.89 609.364 926.414 613.46 922.851 617.477C918.491 622.426 914.005 627.261 909.391 631.983C905.635 635.868 901.792 639.671 897.861 643.39C894.828 646.292 891.759 649.136 888.656 651.923C851.322 685.648 808.434 713.478 764.245 737.816C678.009 785.298 583.487 821.267 485.169 826.505C386.865 831.73 284.24 803.585 212.147 736.556C114.985 646.226 87.8675 495.562 127.315 368.922C153.553 284.67 207.104 208.452 279.985 158.672C352.236 109.326 443.384 87.1147 529.646 101.634C598.509 59.7965 688.659 58.9958 763.523 89.9635C803.47 106.491 839.32 131.066 870.77 160.76C885.173 174.387 898.65 188.96 911.111 204.382C912.385 205.944 913.646 207.52 914.893 209.108C920.12 215.711 925.175 222.45 930.06 229.324C937.073 239.183 943.73 249.261 950.034 259.557C951.767 262.393 953.487 265.241 955.168 268.116C956.298 270.046 957.44 271.989 958.556 273.945C958.582 273.985 958.599 274.029 958.609 274.076C976.087 304.807 990.374 337.6 997.82 371.875C999.133 377.94 1000.24 384.031 1001.09 390.175V390.188C1001.84 395.4 1002.4 400.638 1002.78 405.902C1003.68 418.313 1003.58 430.776 1002.48 443.171Z" fill="#8985C6"/>
<path opacity="0.3" d="M745.942 528.665L550.985 366.307L740.382 535.168C740.749 535.786 741.258 536.307 741.866 536.689C742.475 537.071 743.166 537.302 743.882 537.363C744.598 537.425 745.318 537.315 745.982 537.042C746.647 536.77 747.238 536.343 747.704 535.797C748.171 535.251 748.501 534.602 748.666 533.903C748.832 533.204 748.828 532.476 748.656 531.778C748.484 531.081 748.148 530.435 747.676 529.893C747.204 529.352 746.609 528.931 745.942 528.665Z" fill="#F0F0F0"/>
<path d="M298.856 446.045C363.403 446.045 415.728 393.737 415.728 329.211C415.728 264.685 363.403 212.377 298.856 212.377C234.308 212.377 181.983 264.685 181.983 329.211C181.983 393.737 234.308 446.045 298.856 446.045Z" fill="#F2F2F2"/>
<path d="M402.597 321.335C402.598 335.299 399.847 349.126 394.502 362.028C389.157 374.929 381.322 386.651 371.445 396.525C361.567 406.4 349.841 414.232 336.935 419.575C324.03 424.918 310.198 427.668 296.229 427.667C283.779 427.66 271.425 425.483 259.723 421.235C241.425 414.571 225.307 403.017 213.123 387.83C200.939 372.643 193.157 354.406 190.623 335.104C188.089 315.802 190.9 296.175 198.751 278.36C206.603 260.544 219.193 245.224 235.15 234.066C251.108 222.908 269.822 216.34 289.255 215.078C308.688 213.815 328.095 217.907 345.363 226.906C362.632 235.906 377.099 249.469 387.19 266.119C397.282 282.769 402.611 301.867 402.597 321.335Z" fill="white"/>
<path d="M277.845 318.709C295.976 318.709 310.674 304.016 310.674 285.891C310.674 267.765 295.976 253.072 277.845 253.072C259.714 253.072 245.015 267.765 245.015 285.891C245.015 304.016 259.714 318.709 277.845 318.709Z" fill="#E4E4E4"/>
<path d="M398.447 291.837C391.332 295.259 383.221 296.003 375.602 293.933C367.983 291.863 361.365 287.117 356.962 280.565C352.559 274.013 350.665 266.095 351.627 258.26C352.59 250.426 356.345 243.201 362.203 237.91C379.613 251.669 392.285 270.524 398.447 291.837Z" fill="#F2F2F2"/>
<path d="M331.685 368.593C338.212 368.593 343.504 363.304 343.504 356.779C343.504 350.254 338.212 344.964 331.685 344.964C325.158 344.964 319.866 350.254 319.866 356.779C319.866 363.304 325.158 368.593 331.685 368.593Z" fill="#E4E4E4"/>
<path d="M283.098 423.729C283.097 424.766 282.96 425.799 282.69 426.801C274.849 425.82 267.143 423.953 259.723 421.235C260.339 418.384 261.988 415.862 264.353 414.153C266.717 412.445 269.63 411.671 272.531 411.981C275.432 412.29 278.116 413.661 280.067 415.83C282.018 417.999 283.097 420.812 283.098 423.729Z" fill="#F2F2F2"/>
<path d="M213.499 316.084C213.498 322.078 211.219 327.848 207.123 332.225C203.027 336.602 197.42 339.26 191.438 339.661C188.73 324.056 189.519 308.045 193.749 292.782C199.267 293.702 204.279 296.548 207.896 300.815C211.512 305.081 213.497 310.492 213.499 316.084Z" fill="#F2F2F2"/>
<path d="M796.385 278.545C799.07 278.545 801.246 276.369 801.246 273.685C801.246 271.001 799.07 268.825 796.385 268.825C793.7 268.825 791.523 271.001 791.523 273.685C791.523 276.369 793.7 278.545 796.385 278.545Z" fill="#8985C6"/>
<path d="M751.534 160.301C753.103 160.301 754.375 159.03 754.375 157.462C754.375 155.894 753.103 154.622 751.534 154.622C749.965 154.622 748.694 155.894 748.694 157.462C748.694 159.03 749.965 160.301 751.534 160.301Z" fill="#F0F0F0"/>
<path d="M295.862 716.905C297.431 716.905 298.702 715.634 298.702 714.066C298.702 712.497 297.431 711.226 295.862 711.226C294.293 711.226 293.021 712.497 293.021 714.066C293.021 715.634 294.293 716.905 295.862 716.905Z" fill="#F0F0F0"/>
<path d="M767.659 438.138C769.228 438.138 770.499 436.867 770.499 435.298C770.499 433.73 769.228 432.459 767.659 432.459C766.09 432.459 764.818 433.73 764.818 435.298C764.818 436.867 766.09 438.138 767.659 438.138Z" fill="#F0F0F0"/>
<path d="M401.118 464.955C403.804 464.955 405.98 462.779 405.98 460.095C405.98 457.411 403.804 455.235 401.118 455.235C398.433 455.235 396.257 457.411 396.257 460.095C396.257 462.779 398.433 464.955 401.118 464.955Z" fill="#8985C6"/>
<path d="M225.153 569.687C237.832 569.687 248.111 559.411 248.111 546.736C248.111 534.061 237.832 523.785 225.153 523.785C212.473 523.785 202.194 534.061 202.194 546.736C202.194 559.411 212.473 569.687 225.153 569.687Z" fill="#8985C6"/>
<path d="M351.015 575.129C352.584 575.129 353.856 573.857 353.856 572.289C353.856 570.721 352.584 569.45 351.015 569.45C349.446 569.45 348.175 570.721 348.175 572.289C348.175 573.857 349.446 575.129 351.015 575.129Z" fill="#F0F0F0"/>
<path d="M639.914 131.421C641.483 131.421 642.755 130.15 642.755 128.581C642.755 127.013 641.483 125.742 639.914 125.742C638.345 125.742 637.074 127.013 637.074 128.581C637.074 130.15 638.345 131.421 639.914 131.421Z" fill="#F0F0F0"/>
<path d="M470.514 736.596C472.083 736.596 473.355 735.325 473.355 733.757C473.355 732.189 472.083 730.917 470.514 730.917C468.946 730.917 467.674 732.189 467.674 733.757C467.674 735.325 468.946 736.596 470.514 736.596Z" fill="#F0F0F0"/>
<path d="M428.493 157.676C430.061 157.676 431.333 156.405 431.333 154.836C431.333 153.268 430.061 151.997 428.493 151.997C426.924 151.997 425.652 153.268 425.652 154.836C425.652 156.405 426.924 157.676 428.493 157.676Z" fill="#F0F0F0"/>
<path d="M502.031 295.514C503.599 295.514 504.871 294.243 504.871 292.675C504.871 291.106 503.599 289.835 502.031 289.835C500.462 289.835 499.19 291.106 499.19 292.675C499.19 294.243 500.462 295.514 502.031 295.514Z" fill="#F0F0F0"/>
<path d="M389.464 633.737C391.033 633.737 392.304 632.466 392.304 630.897C392.304 629.329 391.033 628.058 389.464 628.058C387.895 628.058 386.623 629.329 386.623 630.897C386.623 632.466 387.895 633.737 389.464 633.737Z" fill="#F0F0F0"/>
<path d="M721.698 652.115C723.266 652.115 724.538 650.844 724.538 649.276C724.538 647.708 723.266 646.436 721.698 646.436C720.129 646.436 718.857 647.708 718.857 649.276C718.857 650.844 720.129 652.115 721.698 652.115Z" fill="#F0F0F0"/>
<path d="M574.622 486.71C576.191 486.71 577.462 485.438 577.462 483.87C577.462 482.302 576.191 481.03 574.622 481.03C573.053 481.03 571.781 482.302 571.781 483.87C571.781 485.438 573.053 486.71 574.622 486.71Z" fill="#F0F0F0"/>
<path d="M649.473 295.049C651.042 295.049 652.313 293.777 652.313 292.209C652.313 290.641 651.042 289.37 649.473 289.37C647.904 289.37 646.632 290.641 646.632 292.209C646.632 293.777 647.904 295.049 649.473 295.049Z" fill="#F0F0F0"/>
<path d="M785.558 389.811C788.669 389.811 791.19 387.29 791.19 384.181C791.19 381.072 788.669 378.551 785.558 378.551C782.448 378.551 779.926 381.072 779.926 384.181C779.926 387.29 782.448 389.811 785.558 389.811Z" fill="#FF6584"/>
<path d="M557.065 203.401C560.176 203.401 562.698 200.881 562.698 197.771C562.698 194.662 560.176 192.141 557.065 192.141C553.955 192.141 551.433 194.662 551.433 197.771C551.433 200.881 553.955 203.401 557.065 203.401Z" fill="#FF6584"/>
<path d="M557.065 590.661C560.176 590.661 562.698 588.14 562.698 585.031C562.698 581.922 560.176 579.401 557.065 579.401C553.955 579.401 551.433 581.922 551.433 585.031C551.433 588.14 553.955 590.661 557.065 590.661Z" fill="#FF6584"/>
<path d="M907.959 617.477C905.766 617.479 903.632 618.195 901.882 619.517C900.131 620.838 898.858 622.693 898.255 624.802C897.989 625.706 897.857 626.643 897.861 627.585V643.39C901.788 639.675 905.631 635.873 909.391 631.983C914 627.257 918.487 622.421 922.851 617.477H907.959Z" fill="#8985C6"/>
<path d="M943.716 699.603C926.76 699.603 908.176 698.962 887.963 697.681C783.416 691.044 647.996 667.97 506.648 632.71C365.3 597.451 234.912 554.216 139.503 510.974C93.026 489.908 57.3554 469.968 33.4829 451.707C8.20813 432.374 -2.84743 415.522 0.622075 401.622C7.38231 374.541 67.2408 368.617 116.266 368.415L116.282 372.354C48.9583 372.63 9.24049 383.363 4.44497 402.576C-1.66375 427.045 48.1562 465.247 141.129 507.387C236.329 550.534 366.478 593.686 507.602 628.89C648.726 664.093 783.896 687.128 888.213 693.75C990.087 700.219 1052.02 689.894 1058.13 665.424C1063.2 645.107 1029.77 615.178 963.99 581.148L965.801 577.651C1013.6 602.377 1069.08 637.842 1061.95 666.378C1058.48 680.278 1040.8 689.961 1009.41 695.157C991.509 698.118 969.525 699.603 943.716 699.603Z" fill="#8985C6"/>
<path d="M938.373 406.007C1011.26 406.007 1070.35 346.939 1070.35 274.076C1070.35 201.212 1011.26 142.145 938.373 142.145C865.485 142.145 806.398 201.212 806.398 274.076C806.398 346.939 865.485 406.007 938.373 406.007Z" fill="white"/>
<path d="M938.373 140.176C911.881 140.176 885.984 148.029 863.957 162.742C841.93 177.455 824.762 198.368 814.625 222.835C804.487 247.302 801.834 274.224 807.002 300.198C812.171 326.172 824.927 350.031 843.66 368.757C862.392 387.484 886.259 400.236 912.241 405.403C938.224 410.57 965.156 407.918 989.631 397.783C1014.11 387.649 1035.03 370.486 1049.74 348.467C1064.46 326.447 1072.32 300.559 1072.32 274.076C1072.38 256.474 1068.96 239.034 1062.25 222.76C1055.54 206.486 1045.68 191.699 1033.23 179.253C1020.78 166.807 1005.99 156.946 989.706 150.239C973.426 143.533 955.98 140.113 938.373 140.176ZM938.373 404.038C912.66 404.038 887.525 396.415 866.146 382.135C844.767 367.855 828.104 347.557 818.264 323.81C808.424 300.063 805.85 273.932 810.866 248.722C815.882 223.511 828.264 200.354 846.446 182.179C864.627 164.004 887.792 151.626 913.01 146.611C938.228 141.597 964.368 144.17 988.123 154.007C1011.88 163.843 1032.18 180.501 1046.47 201.873C1060.75 223.245 1068.38 248.372 1068.38 274.076C1068.44 291.161 1065.13 308.091 1058.62 323.888C1052.11 339.686 1042.53 354.039 1030.45 366.121C1018.36 378.202 1004 387.772 988.202 394.28C972.399 400.788 955.464 404.104 938.373 404.038Z" fill="#2F2E41"/>
<path d="M822.557 305.675C821.952 305.674 821.367 305.465 820.899 305.083C820.431 304.701 820.108 304.169 819.987 303.577C816.212 284.355 816.893 264.523 821.979 245.604C827.065 226.686 836.419 209.184 849.324 194.442C849.788 193.925 850.439 193.612 851.133 193.574C851.827 193.535 852.508 193.773 853.027 194.235C853.546 194.697 853.86 195.346 853.901 196.04C853.942 196.734 853.707 197.415 853.246 197.935C840.879 212.063 831.914 228.835 827.041 246.964C822.167 265.094 821.514 284.099 825.132 302.52C825.21 302.902 825.202 303.296 825.109 303.675C825.016 304.053 824.839 304.406 824.593 304.708C824.346 305.01 824.036 305.253 823.684 305.421C823.331 305.588 822.947 305.675 822.557 305.675H822.557Z" fill="#2F2E41"/>
<path d="M938.29 396.647C984.617 396.647 1022.17 359.104 1022.17 312.793C1022.17 266.481 984.617 228.938 938.29 228.938C891.963 228.938 854.408 266.481 854.408 312.793C854.408 359.104 891.963 396.647 938.29 396.647Z" fill="#8985C6"/>
<path d="M911.631 344.451C906.193 344.3 899.426 344.111 894.213 340.304C892.661 339.124 891.385 337.619 890.476 335.894C889.567 334.169 889.046 332.267 888.95 330.319C888.855 328.935 889.082 327.549 889.613 326.267C890.144 324.985 890.964 323.844 892.009 322.932C894.732 320.632 898.709 320.092 902.993 321.351L898.554 288.918L901.813 288.472L907.032 326.601L904.31 325.352C901.155 323.906 896.824 323.169 894.133 325.443C893.472 326.037 892.957 326.776 892.628 327.602C892.299 328.428 892.166 329.318 892.237 330.204C892.317 331.653 892.708 333.068 893.384 334.353C894.059 335.637 895.004 336.761 896.153 337.648C900.211 340.611 905.604 340.993 911.722 341.164L911.631 344.451Z" fill="#2F2E41"/>
<path d="M882.437 291.715H864.72V295.004H882.437V291.715Z" fill="#2F2E41"/>
<path d="M938.358 291.715H920.641V295.003H938.358V291.715Z" fill="#2F2E41"/>
<path d="M941.813 417.375H865.78C862.946 417.378 860.229 418.504 858.224 420.508C856.22 422.511 855.093 425.228 855.091 428.061V596.525C855.099 607.942 858.23 619.138 864.147 628.903C870.063 638.668 878.538 646.628 888.656 651.923C891.768 649.14 894.836 646.296 897.861 643.39C901.788 639.675 905.631 635.873 909.391 631.983C914 627.257 918.487 622.421 922.851 617.477C926.423 613.46 929.898 609.364 933.277 605.189C934.788 603.339 936.276 601.466 937.742 599.571C972.922 554.373 997.584 499.724 1002.48 443.17C994.629 435.008 985.207 428.515 974.781 424.083C964.356 419.65 953.142 417.368 941.813 417.375Z" fill="#2F2E41"/>
<path d="M944.584 452.53C942.775 450.76 940.634 449.365 938.283 448.425C935.932 447.486 933.419 447.02 930.888 447.056C926.488 447.09 922.236 448.649 918.859 451.467C918.319 451.904 917.806 452.373 917.323 452.872L855.091 516.671L809.957 562.945C809.272 563.636 808.704 564.434 808.276 565.308C807.6 566.661 807.253 568.155 807.265 569.667C807.279 570.91 807.539 572.139 808.03 573.281C808.521 574.423 809.234 575.457 810.128 576.322L811.901 578.055L824.77 590.592L824.783 590.579C826.512 591.982 828.676 592.738 830.902 592.719C832.146 592.705 833.375 592.445 834.518 591.954C835.661 591.463 836.695 590.75 837.56 589.857L839.648 587.73L854.592 572.41L855.091 571.898L944.926 479.796C948.496 476.135 950.466 471.206 950.402 466.093C950.338 460.98 948.245 456.101 944.584 452.53L944.584 452.53Z" fill="#F2F2F2"/>
<path d="M943.953 273.672C946.727 267.808 943.882 261.545 939.01 257.8C932.87 253.08 924.93 253.861 917.947 256.095C910.301 258.541 902.827 262.942 894.567 262.689C891.623 262.636 888.764 261.696 886.363 259.991C883.963 258.287 882.134 255.897 881.115 253.135C876.691 241.795 881.687 229.119 889.387 220.518C893.734 215.592 899.108 211.678 905.13 209.051C911.151 206.423 917.676 205.146 924.244 205.308C931.742 205.68 939.032 207.901 945.463 211.772C951.894 215.644 957.267 221.046 961.103 227.497C961.376 227.938 961.808 228.256 962.309 228.388C962.811 228.519 963.343 228.453 963.798 228.204C969.642 225.592 975.947 224.164 982.347 224.003C988.747 223.842 995.115 224.951 1001.08 227.266C1010.04 230.915 1017.67 237.2 1022.97 245.287C1028.26 253.375 1030.97 262.881 1030.74 272.545C1030.67 275.08 1034.61 275.079 1034.68 272.545C1034.92 259.035 1029.93 245.954 1020.76 236.034C1016.1 231.088 1010.49 227.126 1004.27 224.383C998.057 221.639 991.352 220.17 984.556 220.061C976.712 219.894 968.933 221.516 961.809 224.803L964.504 225.509C960.953 219.534 956.183 214.374 950.504 210.364C944.826 206.354 938.366 203.585 931.545 202.237C924.791 200.977 917.846 201.184 911.179 202.844C904.512 204.504 898.28 207.577 892.906 211.857C882.793 219.769 875.128 232.047 875.605 245.214C875.812 250.912 877.505 256.761 881.463 261.007C886.531 266.446 894.098 267.386 901.09 265.993C910.381 264.141 918.864 258.032 928.55 258.22C930.448 258.221 932.323 258.625 934.053 259.405C935.783 260.184 937.328 261.322 938.585 262.743C940.718 265.15 942.005 268.611 940.551 271.684C939.473 273.963 942.868 275.964 943.953 273.672L943.953 273.672Z" fill="#2F2E41"/>
<path d="M315.247 747.419C268.499 747.421 225.039 745.817 186.132 742.581C135.277 738.351 94.9784 731.55 66.3565 722.369C36.0528 712.648 19.976 700.49 18.5724 686.232C15.8371 658.456 70.2249 632.771 116.332 616.114L117.671 619.819C54.3539 642.692 20.5525 666.141 22.4927 685.847C24.9639 710.946 84.7269 730.193 186.458 738.656C290.626 747.321 427.712 744.25 572.463 730.005C717.215 715.763 852.269 692.058 952.748 663.257C1050.88 635.131 1105.74 604.604 1103.27 579.506C1101.22 558.667 1059.67 541.708 986.275 531.75L986.804 527.847C1040.13 535.083 1104.31 549.851 1107.19 579.12C1108.59 593.378 1095.19 608.436 1067.37 623.876C1041.09 638.46 1002.89 652.984 953.834 667.043C853.133 695.908 717.83 719.659 572.849 733.925C481.899 742.873 393.935 747.419 315.247 747.419Z" fill="#8985C6"/>
<path d="M1101.04 593.316C1113.72 593.316 1124 583.041 1124 570.365C1124 557.69 1113.72 547.415 1101.04 547.415C1088.36 547.415 1078.08 557.69 1078.08 570.365C1078.08 583.041 1088.36 593.316 1101.04 593.316Z" fill="#8985C6"/>
<path d="M435.261 45.9016C447.941 45.9016 458.219 35.6262 458.219 22.9508C458.219 10.2754 447.941 0 435.261 0C422.582 0 412.303 10.2754 412.303 22.9508C412.303 35.6262 422.582 45.9016 435.261 45.9016Z" fill="#E6E6E6"/>
<path d="M25.5499 592.003C38.2294 592.003 48.5082 581.728 48.5082 569.053C48.5082 556.377 38.2294 546.102 25.5499 546.102C12.8703 546.102 2.59155 556.377 2.59155 569.053C2.59155 581.728 12.8703 592.003 25.5499 592.003Z" fill="#E6E6E6"/>
<path d="M167.373 156.46C175.135 156.46 181.427 150.17 181.427 142.411C181.427 134.651 175.135 128.361 167.373 128.361C159.611 128.361 153.319 134.651 153.319 142.411C153.319 150.17 159.611 156.46 167.373 156.46Z" fill="#FF6584"/>
<path d="M101.714 689.434C109.476 689.434 115.768 683.144 115.768 675.385C115.768 667.626 109.476 661.336 101.714 661.336C93.9523 661.336 87.66 667.626 87.66 675.385C87.66 683.144 93.9523 689.434 101.714 689.434Z" fill="#FF6584"/>
<path d="M1060.33 459.704C1068.1 459.704 1074.39 453.414 1074.39 445.655C1074.39 437.895 1068.1 431.605 1060.33 431.605C1052.57 431.605 1046.28 437.895 1046.28 445.655C1046.28 453.414 1052.57 459.704 1060.33 459.704Z" fill="#FF6584"/>
<path d="M847.599 808.607C860.278 808.607 870.557 798.331 870.557 785.656C870.557 772.98 860.278 762.705 847.599 762.705C834.919 762.705 824.64 772.98 824.64 785.656C824.64 798.331 834.919 808.607 847.599 808.607Z" fill="#E6E6E6"/>
</g>
<defs>
<clipPath id="clip0_18_150">
<rect width="1124" height="827.116" fill="white"/>
</clipPath>
</defs>
</svg>
