<svg width="375" height="307" viewBox="0 0 375 307" fill="none" xmlns="http://www.w3.org/2000/svg">
<g clip-path="url(#clip0_28_271)">
<path d="M91.0716 127.438C110.971 127.438 127.102 112.027 127.102 93.0163C127.102 74.0059 110.971 58.595 91.0716 58.595C71.1724 58.595 55.0409 74.0059 55.0409 93.0163C55.0409 112.027 71.1724 127.438 91.0716 127.438Z" fill="#FF6584"/>
<path d="M386.294 82.3694V172.904C386.295 190.451 382.677 207.827 375.648 224.039C368.619 240.25 358.317 254.981 345.329 267.389C332.341 279.797 316.922 289.639 299.952 296.354C282.982 303.069 264.794 306.525 246.426 306.524H-11V215.99C-11 167.612 15.9139 125.235 56.2225 101.785C63.1685 97.7408 70.4732 94.2872 78.0522 91.4646C82.5125 89.8 87.0609 88.3593 91.6786 87.1486C91.7688 87.1199 91.8631 87.0953 91.9532 87.0748C93.3176 86.7182 94.6905 86.3821 96.0721 86.0665C96.1493 86.046 96.2222 86.0296 96.2994 86.0132C104.814 84.0751 113.5 82.9045 122.244 82.5169C123.278 82.4718 124.312 82.435 125.354 82.4145C125.728 82.4022 126.105 82.394 126.487 82.394C127.276 82.3776 128.07 82.3694 128.868 82.3694H386.294Z" fill="#3F3D56"/>
<path d="M174.347 248.182C72.1973 248.182 -10.6487 274.497 -10.996 307H359.689C359.342 274.497 276.496 248.182 174.347 248.182Z" fill="#F2F2F2"/>
<g opacity="0.1">
<path opacity="0.1" d="M140.023 292.745C158.98 292.745 174.347 288.667 174.347 283.637C174.347 278.606 158.98 274.528 140.023 274.528C121.067 274.528 105.7 278.606 105.7 283.637C105.7 288.667 121.067 292.745 140.023 292.745Z" fill="black"/>
</g>
<g opacity="0.1">
<path opacity="0.1" d="M214.248 276.35C233.204 276.35 248.571 272.272 248.571 267.242C248.571 262.211 233.204 258.133 214.248 258.133C195.291 258.133 179.924 262.211 179.924 267.242C179.924 272.272 195.291 276.35 214.248 276.35Z" fill="black"/>
</g>
<g opacity="0.1">
<path opacity="0.1" d="M140.023 291.834C157.084 291.834 170.914 288.164 170.914 283.637C170.914 279.109 157.084 275.439 140.023 275.439C122.963 275.439 109.132 279.109 109.132 283.637C109.132 288.164 122.963 291.834 140.023 291.834Z" fill="black"/>
</g>
<g opacity="0.1">
<path opacity="0.1" d="M214.248 275.439C231.308 275.439 245.139 271.769 245.139 267.242C245.139 262.714 231.308 259.044 214.248 259.044C197.187 259.044 183.357 262.714 183.357 267.242C183.357 271.769 197.187 275.439 214.248 275.439Z" fill="black"/>
</g>
<path d="M48.208 121.734C49.8667 121.734 51.2113 120.45 51.2113 118.865C51.2113 117.281 49.8667 115.996 48.208 115.996C46.5493 115.996 45.2047 117.281 45.2047 118.865C45.2047 120.45 46.5493 121.734 48.208 121.734Z" fill="#F2F2F2"/>
<path d="M229.229 158.559C229.229 158.559 229.672 143.731 220.622 146.726C211.572 149.721 226.268 158.884 226.268 158.884L229.229 158.559Z" fill="#E6E6E6"/>
<path d="M306.492 234.041C308.151 234.041 309.495 232.757 309.495 231.172C309.495 229.588 308.151 228.303 306.492 228.303C304.833 228.303 303.489 229.588 303.489 231.172C303.489 232.757 304.833 234.041 306.492 234.041Z" fill="#F2F2F2"/>
<path d="M164.908 141.818C166.566 141.818 167.911 140.534 167.911 138.949C167.911 137.365 166.566 136.08 164.908 136.08C163.249 136.08 161.904 137.365 161.904 138.949C161.904 140.534 163.249 141.818 164.908 141.818Z" fill="#F2F2F2"/>
<path d="M313.786 123.374C314.734 123.374 315.502 122.64 315.502 121.734C315.502 120.829 314.734 120.095 313.786 120.095C312.838 120.095 312.07 120.829 312.07 121.734C312.07 122.64 312.838 123.374 313.786 123.374Z" fill="#FF6584"/>
<path d="M257.687 150.046C257.687 150.046 260.401 153.109 259.414 158.058C258.427 163.006 254.728 174.081 254.728 174.081L250.041 187.895H240.957L234.107 181.642L229.938 172.545L227.555 166.931L226.215 163.165V159.754L228.746 158.058H231.427L234.703 161.744L237.085 166.931L242.446 179.368C243.428 169.837 245.572 160.864 249.396 152.012L250.041 150.517C250.041 150.517 254.728 148.632 257.687 150.046Z" fill="#E6E6E6"/>
<path d="M55.0726 205.35C56.0204 205.35 56.7888 204.616 56.7888 203.71C56.7888 202.805 56.0204 202.071 55.0726 202.071C54.1248 202.071 53.3564 202.805 53.3564 203.71C53.3564 204.616 54.1248 205.35 55.0726 205.35Z" fill="#FF6584"/>
<path d="M29.33 238.272H28.5483V237.525H28.3956V238.272H27.6139V238.418H28.3956V239.165H28.5483V238.418H29.33V238.272Z" fill="#F2F2F2"/>
<path d="M280.32 177.61H279.539V176.863H279.386V177.61H278.604V177.756H279.386V178.503H279.539V177.756H280.32V177.61Z" fill="#F2F2F2"/>
<path d="M345.106 165.314H344.324V164.567H344.172V165.314H343.39V165.459H344.172V166.206H344.324V165.459H345.106V165.314Z" fill="#F2F2F2"/>
<path d="M205.667 198.104H204.885V197.357H204.732V198.104H203.951V198.25H204.732V198.997H204.885V198.25H205.667V198.104Z" fill="#F2F2F2"/>
<path d="M326.228 202.203H325.446V201.456H325.294V202.203H324.512V202.349H325.294V203.095H325.446V202.349H326.228V202.203Z" fill="#F2F2F2"/>
<path d="M180.782 219.828H180.001V219.081H179.848V219.828H179.066V219.974H179.848V220.72H180.001V219.974H180.782V219.828Z" fill="#F2F2F2"/>
<path d="M235.7 220.647H234.918V219.901H234.765V220.647H233.984V220.793H234.765V221.54H234.918V220.793H235.7V220.647Z" fill="#F2F2F2"/>
<path d="M30.1882 150.968H29.4065V150.221H29.2538V150.968H28.472V151.114H29.2538V151.86H29.4065V151.114H30.1882V150.968Z" fill="#F2F2F2"/>
<path d="M280.694 94.5548H279.461V118.354H280.694V94.5548Z" fill="#E6E6E6"/>
<path d="M249.021 181.234L234.517 157.793L230.216 157.43L229.653 156.166L224.411 158.643L225.609 159.473L224.849 161.274L232.304 176.336L249.021 181.234Z" fill="#E6E6E6"/>
<path d="M254.673 181.622L251.713 190.811L250.48 202.593L248.26 206.834L250.726 225.921L254.673 229.691L256.399 248.542V257.024L261.086 264.8L255.051 272.983C254.766 273.368 254.596 273.819 254.558 274.288C254.52 274.758 254.616 275.229 254.835 275.65C255.055 276.072 255.39 276.429 255.805 276.683C256.22 276.938 256.699 277.08 257.192 277.095C258.524 277.128 260.281 276.769 262.565 275.639C269.718 272.105 269.472 268.806 269.472 268.806C269.472 268.806 273.911 268.806 274.158 265.507C274.405 262.208 271.445 238.645 271.445 238.645L268.732 228.513V200.944H269.718L270.212 224.507L272.432 233.225L272.678 236.996L275.885 274.697C275.885 274.697 290.19 278.467 290.93 275.404C291.67 272.341 285.504 270.456 285.504 270.456L289.204 263.622V250.427L287.971 247.599L285.751 228.513L289.45 224.743L291.424 222.386V203.536L288.957 196.231L288.217 190.104L284.271 180.679C284.271 180.679 266.265 175.024 254.673 181.622Z" fill="white"/>
<path d="M286.737 128.368C286.737 131.203 286.033 133.996 284.683 136.52C283.332 139.044 281.374 141.225 278.969 142.885C276.565 144.545 273.782 145.635 270.85 146.068C267.918 146.5 264.92 146.261 262.103 145.37C259.287 144.48 256.732 142.964 254.648 140.946C252.564 138.929 251.012 136.467 250.118 133.765C249.224 131.062 249.014 128.196 249.506 125.401C249.997 122.606 251.176 119.962 252.946 117.687L252.951 117.682C255.302 114.661 258.591 112.424 262.349 111.29C266.107 110.156 270.143 110.183 273.885 111.366C277.626 112.549 280.882 114.829 283.189 117.882C285.496 120.934 286.738 124.603 286.737 128.368Z" fill="#8985C6"/>
<g opacity="0.1">
<path opacity="0.1" d="M284.073 120.944L282.544 129.311C271.053 100.813 252.773 118.319 252.458 118.625C254.347 116.198 256.849 114.267 259.73 113.014C262.611 111.76 265.778 111.224 268.935 111.455C272.092 111.687 275.136 112.678 277.783 114.338C280.43 115.997 282.594 118.269 284.073 120.944Z" fill="black"/>
</g>
<path d="M284.567 120.001L283.037 128.368C271.546 99.8707 253.267 117.376 252.951 117.682C254.84 115.255 257.342 113.325 260.223 112.071C263.105 110.817 266.271 110.281 269.428 110.513C272.585 110.744 275.629 111.736 278.276 113.395C280.923 115.054 283.087 117.327 284.567 120.001Z" fill="white"/>
<path d="M281.997 116.468L284.567 124.99C284.567 124.99 279.233 140.263 254.497 140.796L253.686 142.978L250.973 143.684L249.74 148.633L253.193 179.972C253.193 179.972 251.713 183.035 254.179 182.8C254.179 182.8 270.458 177.616 284.518 182.328C284.518 182.328 287.477 183.507 286.737 180.915C286.737 180.915 296.603 175.024 295.863 168.897C295.124 162.771 296.603 134.259 296.603 134.259C296.603 134.259 298.083 126.012 293.644 124.127C293.644 124.127 287.123 115.408 281.997 116.468Z" fill="white"/>
<path d="M276.59 176.01C276.59 176.01 261.136 177.492 265.414 185.679C269.692 193.866 277.309 178.773 277.309 178.773L276.59 176.01Z" fill="#E6E6E6"/>
<path d="M284.517 139.443C284.517 139.443 281.804 142.506 282.791 147.455C283.778 152.403 287.477 163.478 287.477 163.478L274.405 175.024L278.351 180.208L296.11 171.489L300.056 169.133C299.075 159.602 296.633 150.261 292.809 141.408L292.164 139.914C292.164 139.914 287.477 138.029 284.517 139.443Z" fill="#E6E6E6"/>
<path d="M283.284 131.078C285.804 131.078 287.847 129.126 287.847 126.719C287.847 124.311 285.804 122.36 283.284 122.36C280.764 122.36 278.721 124.311 278.721 126.719C278.721 129.126 280.764 131.078 283.284 131.078Z" fill="#E6E6E6"/>
<path d="M280.078 97.6181C281.917 97.6181 283.408 96.1939 283.408 94.437C283.408 92.6802 281.917 91.256 280.078 91.256C278.239 91.256 276.748 92.6802 276.748 94.437C276.748 96.1939 278.239 97.6181 280.078 97.6181Z" fill="#E6E6E6"/>
<path d="M195.37 144.41H194.588V143.663H194.435V144.41H193.654V144.556H194.435V145.302H194.588V144.556H195.37V144.41Z" fill="#F2F2F2"/>
<path d="M265.733 121.456H264.951V120.71H264.799V121.456H264.017V121.602H264.799V122.349H264.951V121.602H265.733V121.456Z" fill="#F2F2F2"/>
<path d="M258.01 128.424H257.228V127.678H257.076V128.424H256.294V128.57H257.076V129.317H257.228V128.57H258.01V128.424Z" fill="#F2F2F2"/>
<path d="M227.548 111.077C228.496 111.077 229.264 110.343 229.264 109.438C229.264 108.532 228.496 107.798 227.548 107.798C226.6 107.798 225.832 108.532 225.832 109.438C225.832 110.343 226.6 111.077 227.548 111.077Z" fill="#F2F2F2"/>
<path d="M143.008 120.994C143.008 235.369 127.954 235.369 109.389 235.369C99.7905 235.369 91.1314 235.369 85.0081 219.57C83.2476 215.029 81.6923 209.174 80.3886 201.637C77.4526 184.696 75.769 159.237 75.769 120.994C75.769 106.289 77.5912 91.8723 80.3886 78.4072C81.7333 71.9248 83.3039 65.6679 85.0081 59.7003C87.092 52.3941 89.376 45.5242 91.6807 39.2379C93.2256 35.0111 94.786 31.0441 96.3002 27.3812C103.296 10.4739 109.389 0 109.389 0C109.389 0 143.008 57.8272 143.008 120.994Z" fill="#F2F2F2"/>
<g opacity="0.1">
<path opacity="0.1" d="M96.3002 27.3812V226.788H91.6807V39.2379C93.2256 35.0111 94.786 31.0442 96.3002 27.3812Z" fill="black"/>
</g>
<path d="M108.362 96.5993C118.567 96.5993 126.84 88.6959 126.84 78.9466C126.84 69.1973 118.567 61.2939 108.362 61.2939C98.1572 61.2939 89.8843 69.1973 89.8843 78.9466C89.8843 88.6959 98.1572 96.5993 108.362 96.5993Z" fill="#3F3D56"/>
<path d="M148.911 224.581C144.803 214.919 139.527 213.253 136.079 213.398V211.832H82.1851V213.398C78.7369 213.253 73.4617 214.919 69.3532 224.581C62.6806 240.272 73.4594 267.242 73.4594 267.242C73.4594 267.242 67.699 229.628 86.8276 229.381C88.4842 231.445 90.5171 233.207 92.8285 234.582V244.698H123.72V235.503C126.739 234.04 129.377 231.948 131.437 229.381C150.565 229.628 144.805 267.242 144.805 267.242C144.805 267.242 155.584 240.272 148.911 224.581Z" fill="#8985C6"/>
<path d="M108.362 92.6765C116.3 92.6765 122.734 86.5294 122.734 78.9466C122.734 71.3639 116.3 65.2168 108.362 65.2168C100.425 65.2168 93.9905 71.3639 93.9905 78.9466C93.9905 86.5294 100.425 92.6765 108.362 92.6765Z" fill="#8985C6"/>
<path d="M351.975 82.3694H351.117C351.179 91.2471 354.911 99.7417 361.5 106.002C368.089 112.262 377.001 115.781 386.294 115.791V114.971C377.229 114.962 368.534 111.53 362.106 105.423C355.677 99.3164 352.036 91.0299 351.975 82.3694Z" fill="#6C63FF"/>
<path d="M336.1 82.3694H335.242C335.307 95.2682 340.713 107.618 350.279 116.722C359.844 125.826 372.792 130.943 386.294 130.957V130.137C373.02 130.123 360.291 125.091 350.886 116.141C341.482 107.192 336.166 95.0506 336.1 82.3694Z" fill="#6C63FF"/>
<path d="M319.792 82.3694H318.934C319.042 117.767 349.216 146.532 386.294 146.532V145.712C349.688 145.712 319.9 117.316 319.792 82.3694Z" fill="#6C63FF"/>
</g>
<defs>
<clipPath id="clip0_28_271">
<rect width="397.294" height="307" fill="white" transform="translate(-11)"/>
</clipPath>
</defs>
</svg>
