<svg width="667" height="540" viewBox="0 0 667 540" fill="none" xmlns="http://www.w3.org/2000/svg">
<g opacity="0.35" clip-path="url(#clip0_7_14)">
<path d="M171.363 224.157C204.771 224.157 231.854 197.05 231.854 163.612C231.854 130.173 204.771 103.066 171.363 103.066C137.956 103.066 110.873 130.173 110.873 163.612C110.873 197.05 137.956 224.157 171.363 224.157Z" fill="#FF6584"/>
<path d="M667 144.884V304.13C667.001 334.996 660.928 365.559 649.127 394.075C637.327 422.591 620.03 448.501 598.225 470.326C576.42 492.151 550.534 509.463 522.044 521.275C493.554 533.086 463.018 539.165 432.181 539.164H0V379.918C0 294.823 45.1846 220.283 112.857 179.036C124.518 171.922 136.782 165.847 149.506 160.883C156.994 157.954 164.63 155.42 172.383 153.291C172.534 153.24 172.692 153.197 172.844 153.161C175.134 152.534 177.439 151.943 179.759 151.387C179.888 151.351 180.011 151.323 180.14 151.294C194.435 147.885 209.018 145.826 223.697 145.144C225.433 145.065 227.169 145 228.919 144.964C229.546 144.942 230.18 144.928 230.821 144.928C232.146 144.899 233.479 144.884 234.819 144.884H667Z" fill="#3F3D56"/>
<path d="M311.171 436.542C139.676 436.542 0.589906 482.829 0.00683594 540H622.334C621.751 482.829 482.665 436.542 311.171 436.542Z" fill="#F2F2F2"/>
<g opacity="0.1">
<path opacity="0.1" d="M253.546 514.927C285.371 514.927 311.171 507.754 311.171 498.905C311.171 490.057 285.371 482.884 253.546 482.884C221.721 482.884 195.922 490.057 195.922 498.905C195.922 507.754 221.721 514.927 253.546 514.927Z" fill="black"/>
</g>
<g opacity="0.1">
<path opacity="0.1" d="M378.159 486.088C409.984 486.088 435.783 478.915 435.783 470.067C435.783 461.218 409.984 454.045 378.159 454.045C346.334 454.045 320.535 461.218 320.535 470.067C320.535 478.915 346.334 486.088 378.159 486.088Z" fill="black"/>
</g>
<g opacity="0.1">
<path opacity="0.1" d="M253.546 513.324C282.189 513.324 305.408 506.869 305.408 498.905C305.408 490.942 282.189 484.486 253.546 484.486C224.904 484.486 201.685 490.942 201.685 498.905C201.685 506.869 224.904 513.324 253.546 513.324Z" fill="black"/>
</g>
<g opacity="0.1">
<path opacity="0.1" d="M378.159 484.486C406.801 484.486 430.021 478.03 430.021 470.067C430.021 462.103 406.801 455.648 378.159 455.648C349.516 455.648 326.297 462.103 326.297 470.067C326.297 478.03 349.516 484.486 378.159 484.486Z" fill="black"/>
</g>
<path d="M99.4017 214.125C102.186 214.125 104.444 211.866 104.444 209.079C104.444 206.291 102.186 204.032 99.4017 204.032C96.617 204.032 94.3596 206.291 94.3596 209.079C94.3596 211.866 96.617 214.125 99.4017 214.125Z" fill="#F2F2F2"/>
<path d="M399.31 278.898C399.31 278.898 400.054 252.817 384.861 258.085C369.667 263.354 394.338 279.47 394.338 279.47L399.31 278.898Z" fill="#E6E6E6"/>
<path d="M533.024 411.669C535.808 411.669 538.066 409.409 538.066 406.622C538.066 403.835 535.808 401.575 533.024 401.575C530.239 401.575 527.982 403.835 527.982 406.622C527.982 409.409 530.239 411.669 533.024 411.669Z" fill="#F2F2F2"/>
<path d="M295.324 249.453C298.109 249.453 300.366 247.193 300.366 244.406C300.366 241.619 298.109 239.359 295.324 239.359C292.539 239.359 290.282 241.619 290.282 244.406C290.282 247.193 292.539 249.453 295.324 249.453Z" fill="#F2F2F2"/>
<path d="M545.269 217.009C546.86 217.009 548.15 215.718 548.15 214.126C548.15 212.533 546.86 211.242 545.269 211.242C543.678 211.242 542.388 212.533 542.388 214.126C542.388 215.718 543.678 217.009 545.269 217.009Z" fill="#FF6584"/>
<path d="M451.088 263.925C451.088 263.925 455.643 269.313 453.986 278.017C452.33 286.721 446.119 306.201 446.119 306.201L438.251 330.5H423L411.5 319.5H423L425.5 315.5C427.147 298.736 430.747 282.953 437.167 267.382L438.251 264.754C438.251 264.754 446.119 261.438 451.088 263.925Z" fill="#E6E6E6"/>
<path d="M110.927 361.202C112.518 361.202 113.808 359.91 113.808 358.318C113.808 356.725 112.518 355.434 110.927 355.434C109.335 355.434 108.045 356.725 108.045 358.318C108.045 359.91 109.335 361.202 110.927 361.202Z" fill="#FF6584"/>
<path d="M67.7084 419.111H66.396V417.797H66.1396V419.111H64.8272V419.367H66.1396V420.681H66.396V419.367H67.7084V419.111Z" fill="#F2F2F2"/>
<path d="M489.085 312.408H487.773V311.095H487.517V312.408H486.204V312.665H487.517V313.979H487.773V312.665H489.085V312.408Z" fill="#F2F2F2"/>
<path d="M597.851 290.78H596.539V289.466H596.282V290.78H594.97V291.036H596.282V292.35H596.539V291.036H597.851V290.78Z" fill="#F2F2F2"/>
<path d="M363.753 348.456H362.44V347.143H362.184V348.456H360.871V348.713H362.184V350.027H362.44V348.713H363.753V348.456Z" fill="#F2F2F2"/>
<path d="M566.158 355.666H564.845V354.352H564.589V355.666H563.276V355.923H564.589V357.236H564.845V355.923H566.158V355.666Z" fill="#F2F2F2"/>
<path d="M321.975 386.667H320.663V385.354H320.406V386.667H319.094V386.924H320.406V388.238H320.663V386.924H321.975V386.667Z" fill="#F2F2F2"/>
<path d="M414.174 388.109H412.861V386.796H412.605V388.109H411.293V388.366H412.605V389.68H412.861V388.366H414.174V388.109Z" fill="#F2F2F2"/>
<path d="M69.149 265.546H67.8366V264.232H67.5802V265.546H66.2678V265.803H67.5802V267.116H67.8366V265.803H69.149V265.546Z" fill="#F2F2F2"/>
<path d="M489.713 166.318H487.643V208.179H489.713V166.318Z" fill="#E6E6E6"/>
<path d="M433.313 320.5L408.501 277.551L401.28 276.913L400.334 274.69L391.534 279.046L393.546 280.507L392.27 283.675L412.313 320.5L433.313 320.5Z" fill="#E6E6E6"/>
<path d="M446.026 319.465L441.057 335.629L438.987 356.352L435.26 363.813L439.401 397.385L446.026 404.017L448.925 437.174V452.095L456.793 465.773L446.661 480.166C446.183 480.842 445.897 481.636 445.834 482.462C445.77 483.288 445.931 484.115 446.3 484.857C446.668 485.599 447.231 486.227 447.927 486.674C448.624 487.121 449.429 487.372 450.256 487.398C452.493 487.457 455.441 486.824 459.277 484.838C471.286 478.621 470.872 472.819 470.872 472.819C470.872 472.819 478.326 472.819 478.74 467.016C479.154 461.213 474.185 419.766 474.185 419.766L469.63 401.944V353.451H471.286L472.114 394.898L475.841 410.234L476.255 416.865L481.638 483.18C481.638 483.18 505.656 489.812 506.898 484.424C508.14 479.036 497.788 475.72 497.788 475.72L503.999 463.7V440.49L501.929 435.516L498.202 401.944L504.413 395.313L507.726 391.168V358.01L503.585 345.162L502.343 334.386L495.717 317.807C495.717 317.807 465.489 307.859 446.026 319.465Z" fill="white"/>
<path d="M499.858 225.794C499.858 230.78 498.676 235.694 496.409 240.133C494.142 244.572 490.855 248.409 486.817 251.329C482.78 254.248 478.108 256.167 473.185 256.927C468.263 257.687 463.23 257.267 458.501 255.701C453.773 254.135 449.483 251.467 445.985 247.919C442.487 244.37 439.88 240.041 438.379 235.287C436.878 230.533 436.526 225.491 437.352 220.574C438.177 215.658 440.157 211.008 443.128 207.007L443.136 206.998C447.083 201.683 452.604 197.749 458.913 195.755C465.223 193.76 471.999 193.807 478.281 195.888C484.562 197.97 490.028 201.98 493.901 207.349C497.775 212.718 499.859 219.172 499.858 225.794Z" fill="#8985C6"/>
<g opacity="0.1">
<path opacity="0.1" d="M495.386 212.734L492.819 227.452C473.526 177.326 442.838 208.117 442.308 208.656C445.48 204.387 449.68 200.991 454.517 198.786C459.354 196.581 464.671 195.638 469.971 196.045C475.27 196.452 480.381 198.196 484.825 201.115C489.269 204.033 492.903 208.031 495.386 212.734Z" fill="black"/>
</g>
<path d="M496.214 211.077L493.647 225.794C474.354 175.668 443.666 206.459 443.136 206.998C446.308 202.729 450.508 199.333 455.345 197.128C460.183 194.923 465.499 193.98 470.799 194.387C476.099 194.794 481.209 196.538 485.653 199.457C490.097 202.375 493.731 206.373 496.214 211.077Z" fill="white"/>
<path d="M491.9 204.863L496.214 219.852C496.214 219.852 487.259 246.718 445.731 247.654L444.37 251.492L439.815 252.735L437.745 261.439L443.542 316.563C443.542 316.563 441.057 321.952 445.198 321.537C445.198 321.537 472.528 312.419 496.132 320.708C496.132 320.708 501.101 322.78 499.858 318.221C499.858 318.221 516.422 307.86 515.18 297.083C513.937 286.307 516.422 236.156 516.422 236.156C516.422 236.156 518.907 221.65 511.453 218.334C511.453 218.334 500.506 202.997 491.9 204.863Z" fill="white"/>
<path d="M482.822 309.593C482.822 309.593 456.878 312.201 464.059 326.602C471.241 341.003 484.03 314.453 484.03 314.453L482.822 309.593Z" fill="#E6E6E6"/>
<path d="M496.131 245.274C496.131 245.274 491.576 250.663 493.233 259.366C494.889 268.07 501.101 287.55 501.101 287.55L479.154 307.859L485.779 316.978L515.594 301.642L522.219 297.498C520.572 280.734 516.472 264.303 510.052 248.732L508.968 246.103C508.968 246.103 501.101 242.788 496.131 245.274Z" fill="#E6E6E6"/>
<path d="M494.061 230.561C498.292 230.561 501.722 227.128 501.722 222.893C501.722 218.658 498.292 215.225 494.061 215.225C489.83 215.225 486.4 218.658 486.4 222.893C486.4 227.128 489.83 230.561 494.061 230.561Z" fill="#E6E6E6"/>
<path d="M488.678 171.706C491.765 171.706 494.268 169.201 494.268 166.111C494.268 163.021 491.765 160.515 488.678 160.515C485.59 160.515 483.088 163.021 483.088 166.111C483.088 169.201 485.59 171.706 488.678 171.706Z" fill="#E6E6E6"/>
<path d="M346.465 254.01H345.153V252.697H344.897V254.01H343.584V254.267H344.897V255.581H345.153V254.267H346.465V254.01Z" fill="#F2F2F2"/>
<path d="M464.595 213.637H463.283V212.323H463.026V213.637H461.714V213.893H463.026V215.207H463.283V213.893H464.595V213.637Z" fill="#F2F2F2"/>
<path d="M451.63 225.893H450.317V224.579H450.061V225.893H448.748V226.15H450.061V227.463H450.317V226.15H451.63V225.893Z" fill="#F2F2F2"/>
<path d="M400.488 195.38C402.079 195.38 403.369 194.089 403.369 192.497C403.369 190.904 402.079 189.613 400.488 189.613C398.897 189.613 397.607 190.904 397.607 192.497C397.607 194.089 398.897 195.38 400.488 195.38Z" fill="#F2F2F2"/>
<path d="M258.558 212.824C258.558 414.004 233.284 414.004 202.116 414.004C186.001 414.004 171.464 414.004 161.184 386.214C158.228 378.227 155.617 367.928 153.428 354.672C148.499 324.872 145.673 280.091 145.673 212.824C145.673 186.957 148.732 161.599 153.428 137.915C155.686 126.513 158.323 115.507 161.184 105.01C164.682 92.1589 168.517 80.0752 172.386 69.0178C174.98 61.583 177.6 54.6053 180.142 48.1624C191.887 18.4231 202.116 0 202.116 0C202.116 0 258.558 101.716 258.558 212.824Z" fill="#F2F2F2"/>
<g opacity="0.1">
<path opacity="0.1" d="M180.142 48.1624V398.91H172.386V69.0178C174.98 61.583 177.6 54.6053 180.142 48.1624Z" fill="black"/>
</g>
<path d="M200.392 169.914C217.525 169.914 231.414 156.012 231.414 138.864C231.414 121.715 217.525 107.813 200.392 107.813C183.259 107.813 169.37 121.715 169.37 138.864C169.37 156.012 183.259 169.914 200.392 169.914Z" fill="#3F3D56"/>
<path d="M268.468 395.029C261.57 378.034 252.714 375.102 246.925 375.357V372.603H156.444V375.357C150.655 375.102 141.799 378.034 134.901 395.029C123.699 422.629 141.795 470.067 141.795 470.067C141.795 470.067 132.124 403.906 164.238 403.471C167.02 407.102 170.433 410.201 174.313 412.62V430.414H226.175V414.24C231.245 411.666 235.672 407.986 239.131 403.471C271.245 403.906 261.574 470.067 261.574 470.067C261.574 470.067 279.67 422.629 268.468 395.029Z" fill="#8985C6"/>
<path d="M200.392 163.014C213.718 163.014 224.52 152.201 224.52 138.864C224.52 125.526 213.718 114.714 200.392 114.714C187.066 114.714 176.264 125.526 176.264 138.864C176.264 152.201 187.066 163.014 200.392 163.014Z" fill="#8985C6"/>
<path d="M609.383 144.884H607.942C608.046 160.5 614.312 175.442 625.374 186.453C636.436 197.465 651.398 203.654 667 203.672V202.23C651.78 202.213 637.184 196.176 626.391 185.435C615.599 174.693 609.485 160.118 609.383 144.884Z" fill="#6C63FF"/>
<path d="M582.732 144.884H581.291C581.401 167.573 590.476 189.296 606.535 205.309C622.594 221.322 644.332 230.324 667 230.347V228.905C644.714 228.88 623.344 220.03 607.555 204.288C591.767 188.546 582.843 167.19 582.732 144.884Z" fill="#6C63FF"/>
<path d="M555.353 144.884H553.913C554.093 207.147 604.751 257.744 667 257.744V256.302C605.544 256.302 555.533 206.354 555.353 144.884Z" fill="#6C63FF"/>
</g>
<defs>
<clipPath id="clip0_7_14">
<rect width="667" height="540" fill="white"/>
</clipPath>
</defs>
</svg>
